<?xml version="1.0" encoding="UTF-8" standalone="no"?>
<!DOCTYPE svg PUBLIC "-//W3C//DTD SVG 1.1//EN" "http://www.w3.org/Graphics/SVG/1.1/DTD/svg11.dtd">
<svg width="512px" height="512px" version="1.1" xmlns="http://www.w3.org/2000/svg" xmlns:xlink="http://www.w3.org/1999/xlink" xml:space="preserve" xmlns:serif="http://www.serif.com/" style="fill-rule:evenodd;clip-rule:evenodd;stroke-linejoin:round;stroke-miterlimit:2;">
    <g transform="matrix(1.39489,0,0,1.39489,-65.4889,-181.826)">
        <path d="M221.55,153.186C186.876,154.969 154.46,166.902 142.334,184.546C134.534,200.28 128.724,217.77 124.912,236.771C159.536,250.343 190.702,257.729 221.549,258.933L221.549,244.946L205.549,244.946L205.549,162.946L221.549,162.946L221.549,153.186L221.55,153.186Z" style="fill:white;"/>
    </g>
    <g transform="matrix(1.39489,0,0,1.39489,-65.4889,-181.826)">
        <path d="M239.55,153.186L239.55,162.946L255.55,162.946L255.55,244.946L239.55,244.946L239.55,258.932C270.328,257.732 301.424,250.375 335.957,236.862C332.167,217.642 326.425,200.018 318.754,184.535C306.621,166.897 274.214,154.969 239.549,153.185L239.55,153.186Z" style="fill:white;"/>
    </g>
    <g transform="matrix(1.81386e-16,2.96226,-0.597015,3.65566e-17,308.461,-690.54)">
        <path d="M256.493,100.196L256.493,123.406L249.296,87.699L256.493,51.991L256.493,75.201L275.995,75.201L275.995,51.991L283.192,87.699L275.995,123.406L275.995,100.196L256.493,100.196Z" style="fill:white;"/>
    </g>
    <g transform="matrix(1.39489,0,0,1.39489,-65.4889,-181.826)">
        <path d="M121.94,254.924C115.39,306.036 122.188,366.711 143.133,433.242L143.209,433.484L143.269,433.73C146.391,446.017 156.814,456.079 172.769,463.33C188.727,470.582 209.656,474.51 230.573,474.57C251.491,474.63 272.406,470.817 288.337,463.605C304.267,456.395 314.675,446.332 317.817,433.762L317.899,433.428L318.009,433.1C338.912,370.39 345.642,307.81 338.879,255.033C262.684,284.033 198.163,283.993 121.939,254.923L121.94,254.924Z" style="fill:white;"/>
    </g>
</svg>
