<?xml version="1.0" encoding="UTF-8" standalone="no"?>
<!DOCTYPE svg PUBLIC "-//W3C//DTD SVG 1.1//EN" "http://www.w3.org/Graphics/SVG/1.1/DTD/svg11.dtd">
<svg width="100%" height="100%" viewBox="0 0 512 512" version="1.1" xmlns="http://www.w3.org/2000/svg" xmlns:xlink="http://www.w3.org/1999/xlink" xml:space="preserve" xmlns:serif="http://www.serif.com/" style="fill-rule:evenodd;clip-rule:evenodd;stroke-linejoin:round;stroke-miterlimit:2;">
    <path d="M68.906,19.344C66.292,19.374 63.728,19.642 61.219,20.094C49.235,20.75 38.59,25.42 30.812,33.5C21.155,43.53 16.542,58.27 18.937,74.094C18.949,74.178 18.987,74.259 18.999,74.344C19.707,87.362 25.501,101.22 38.529,114.25L124.655,200.375C154.91,203.103 177.659,227.002 178.561,257.875L178.718,263.5C179.518,269.3 182.978,273.897 187.592,276.28C193.326,279.245 199.979,279.428 207.217,272.188L271.653,207.781C279.373,200.063 278.518,195.068 275.153,189.626C271.788,184.184 263.911,179.532 256.373,179.532L255.968,179.532C225.843,178.236 202.541,156.048 199.468,126.532L112.873,39.939C97.59,24.652 82.44,19.183 68.905,19.345L68.906,19.344ZM65,38.187C70.44,38.217 76.493,39.574 82.97,42.657L175.938,135.625L162.718,148.845L54,40.124C57.284,38.874 60.967,38.164 65,38.186L65,38.187ZM38.344,56.47L146.75,164.843L133.53,178.063L43.125,87.655C39.97,81.813 38.159,76.289 37.405,71.311C36.555,65.691 36.98,60.734 38.345,56.468L38.344,56.47ZM270.562,235.312L233.75,272.062L250.375,288.687L287.188,251.937L270.563,235.312L270.562,235.312ZM288.844,276.685L276.094,289.437L388.406,401.75L391.719,405.063L391.029,409.688L386.687,439.656L459.687,486.344L485.78,460.25L439.094,387.28L409.094,391.625L404.469,392.313L401.155,389L288.843,276.687L288.844,276.685Z" style="fill:white;fill-rule:nonzero;"/>
</svg>
